<?xml version="1.0" encoding="utf-8"?>
<!-- Generator: Adobe Illustrator 17.1.0, SVG Export Plug-In . SVG Version: 6.00 Build 0)  -->
<!DOCTYPE svg PUBLIC "-//W3C//DTD SVG 1.1//EN" "http://www.w3.org/Graphics/SVG/1.1/DTD/svg11.dtd">
<svg version="1.1" id="Layer_1" xmlns="http://www.w3.org/2000/svg" xmlns:xlink="http://www.w3.org/1999/xlink" x="0px" y="0px"
	 viewBox="0 0 24 24" enable-background="new 0 0 24 24" xml:space="preserve">
<rect x="0" fill="#FFFFFF" width="24" height="24"/>
<circle cx="0.5" cy="0.5" r="0.5"/>
<circle cx="2.5" cy="0.5" r="0.5"/>
<circle cx="4.5" cy="0.5" r="0.5"/>
<circle cx="6.5" cy="0.5" r="0.5"/>
<circle cx="8.5" cy="0.5" r="0.5"/>
<circle cx="10.5" cy="0.5" r="0.5"/>
<circle cx="12.5" cy="0.5" r="0.5"/>
<circle cx="14.5" cy="0.5" r="0.5"/>
<circle cx="16.5" cy="0.5" r="0.5"/>
<circle cx="18.5" cy="0.5" r="0.5"/>
<circle cx="20.5" cy="0.5" r="0.5"/>
<circle cx="22.5" cy="0.5" r="0.5"/>
<circle cx="1.5" cy="2.5" r="0.5"/>
<circle cx="3.5" cy="2.5" r="0.5"/>
<circle cx="5.5" cy="2.5" r="0.5"/>
<circle cx="7.5" cy="2.5" r="0.5"/>
<circle cx="9.5" cy="2.5" r="0.5"/>
<circle cx="11.5" cy="2.5" r="0.5"/>
<circle cx="13.5" cy="2.5" r="0.5"/>
<circle cx="15.5" cy="2.5" r="0.5"/>
<circle cx="17.5" cy="2.5" r="0.5"/>
<circle cx="19.5" cy="2.5" r="0.5"/>
<circle cx="21.5" cy="2.5" r="0.5"/>
<circle cx="23.5" cy="2.5" r="0.5"/>
<circle cx="0.5" cy="4.5" r="0.5"/>
<circle cx="2.5" cy="4.5" r="0.5"/>
<circle cx="4.5" cy="4.5" r="0.5"/>
<circle cx="6.5" cy="4.5" r="0.5"/>
<circle cx="8.5" cy="4.5" r="0.5"/>
<circle cx="10.5" cy="4.5" r="0.5"/>
<circle cx="12.5" cy="4.5" r="0.5"/>
<circle cx="14.5" cy="4.5" r="0.5"/>
<circle cx="16.5" cy="4.5" r="0.5"/>
<circle cx="18.5" cy="4.5" r="0.5"/>
<circle cx="20.5" cy="4.5" r="0.5"/>
<circle cx="22.5" cy="4.5" r="0.5"/>
<circle cx="1.5" cy="6.5" r="0.5"/>
<circle cx="3.5" cy="6.5" r="0.5"/>
<circle cx="5.5" cy="6.5" r="0.5"/>
<circle cx="7.5" cy="6.5" r="0.5"/>
<circle cx="9.5" cy="6.5" r="0.5"/>
<circle cx="11.5" cy="6.5" r="0.5"/>
<circle cx="13.5" cy="6.5" r="0.5"/>
<circle cx="15.5" cy="6.5" r="0.5"/>
<circle cx="17.5" cy="6.5" r="0.5"/>
<circle cx="19.5" cy="6.5" r="0.5"/>
<circle cx="21.5" cy="6.5" r="0.5"/>
<circle cx="23.5" cy="6.5" r="0.5"/>
<circle cx="0.5" cy="8.5" r="0.5"/>
<circle cx="2.5" cy="8.5" r="0.5"/>
<circle cx="4.5" cy="8.5" r="0.5"/>
<circle cx="6.5" cy="8.5" r="0.5"/>
<circle cx="8.5" cy="8.5" r="0.5"/>
<circle cx="10.5" cy="8.5" r="0.5"/>
<circle cx="12.5" cy="8.5" r="0.5"/>
<circle cx="14.5" cy="8.5" r="0.5"/>
<circle cx="16.5" cy="8.5" r="0.5"/>
<circle cx="18.5" cy="8.5" r="0.5"/>
<circle cx="20.5" cy="8.5" r="0.5"/>
<circle cx="22.5" cy="8.5" r="0.5"/>
<circle cx="1.5" cy="10.5" r="0.5"/>
<circle cx="3.5" cy="10.5" r="0.5"/>
<circle cx="5.5" cy="10.5" r="0.5"/>
<circle cx="7.5" cy="10.5" r="0.5"/>
<circle cx="9.5" cy="10.5" r="0.5"/>
<circle cx="11.5" cy="10.5" r="0.5"/>
<circle cx="13.5" cy="10.5" r="0.5"/>
<circle cx="15.5" cy="10.5" r="0.5"/>
<circle cx="17.5" cy="10.5" r="0.5"/>
<circle cx="19.5" cy="10.5" r="0.5"/>
<circle cx="21.5" cy="10.5" r="0.5"/>
<circle cx="23.5" cy="10.5" r="0.5"/>
<circle cx="0.5" cy="12.5" r="0.5"/>
<circle cx="2.5" cy="12.5" r="0.5"/>
<circle cx="4.5" cy="12.5" r="0.5"/>
<circle cx="6.5" cy="12.5" r="0.5"/>
<circle cx="8.5" cy="12.5" r="0.5"/>
<circle cx="10.5" cy="12.5" r="0.5"/>
<circle cx="12.5" cy="12.5" r="0.5"/>
<circle cx="14.5" cy="12.5" r="0.5"/>
<circle cx="16.5" cy="12.5" r="0.5"/>
<circle cx="18.5" cy="12.5" r="0.5"/>
<circle cx="20.5" cy="12.5" r="0.5"/>
<circle cx="22.5" cy="12.5" r="0.5"/>
<circle cx="1.5" cy="14.5" r="0.5"/>
<circle cx="3.5" cy="14.5" r="0.5"/>
<circle cx="5.5" cy="14.5" r="0.5"/>
<circle cx="7.5" cy="14.5" r="0.5"/>
<circle cx="9.5" cy="14.5" r="0.5"/>
<circle cx="11.5" cy="14.5" r="0.5"/>
<circle cx="13.5" cy="14.5" r="0.5"/>
<circle cx="15.5" cy="14.5" r="0.5"/>
<circle cx="17.5" cy="14.5" r="0.5"/>
<circle cx="19.5" cy="14.5" r="0.5"/>
<circle cx="21.5" cy="14.5" r="0.5"/>
<circle cx="23.5" cy="14.5" r="0.5"/>
<circle cx="0.5" cy="16.5" r="0.5"/>
<circle cx="2.5" cy="16.5" r="0.5"/>
<circle cx="4.5" cy="16.5" r="0.5"/>
<circle cx="6.5" cy="16.5" r="0.5"/>
<circle cx="8.5" cy="16.5" r="0.5"/>
<circle cx="10.5" cy="16.5" r="0.5"/>
<circle cx="12.5" cy="16.5" r="0.5"/>
<circle cx="14.5" cy="16.5" r="0.5"/>
<circle cx="16.5" cy="16.5" r="0.5"/>
<circle cx="18.5" cy="16.5" r="0.5"/>
<circle cx="20.5" cy="16.5" r="0.5"/>
<circle cx="22.5" cy="16.5" r="0.5"/>
<circle cx="1.5" cy="18.5" r="0.5"/>
<circle cx="3.5" cy="18.5" r="0.5"/>
<circle cx="5.5" cy="18.5" r="0.5"/>
<circle cx="7.5" cy="18.5" r="0.5"/>
<circle cx="9.5" cy="18.5" r="0.5"/>
<circle cx="11.5" cy="18.5" r="0.5"/>
<circle cx="13.5" cy="18.5" r="0.5"/>
<circle cx="15.5" cy="18.5" r="0.5"/>
<circle cx="17.5" cy="18.5" r="0.5"/>
<circle cx="19.5" cy="18.5" r="0.5"/>
<circle cx="21.5" cy="18.5" r="0.5"/>
<circle cx="23.5" cy="18.5" r="0.5"/>
<circle cx="0.5" cy="20.5" r="0.5"/>
<circle cx="2.5" cy="20.5" r="0.5"/>
<circle cx="4.5" cy="20.5" r="0.5"/>
<circle cx="6.5" cy="20.5" r="0.5"/>
<circle cx="8.5" cy="20.5" r="0.5"/>
<circle cx="10.5" cy="20.5" r="0.5"/>
<circle cx="12.5" cy="20.5" r="0.5"/>
<circle cx="14.5" cy="20.5" r="0.5"/>
<circle cx="16.5" cy="20.5" r="0.5"/>
<circle cx="18.5" cy="20.5" r="0.5"/>
<circle cx="20.5" cy="20.5" r="0.5"/>
<circle cx="22.5" cy="20.5" r="0.5"/>
<circle cx="1.5" cy="22.5" r="0.5"/>
<circle cx="3.5" cy="22.5" r="0.5"/>
<circle cx="5.5" cy="22.5" r="0.5"/>
<circle cx="7.5" cy="22.5" r="0.5"/>
<circle cx="9.5" cy="22.5" r="0.5"/>
<circle cx="11.5" cy="22.5" r="0.5"/>
<circle cx="13.5" cy="22.5" r="0.5"/>
<circle cx="15.5" cy="22.5" r="0.5"/>
<circle cx="17.5" cy="22.5" r="0.5"/>
<circle cx="19.5" cy="22.5" r="0.5"/>
<circle cx="21.5" cy="22.5" r="0.5"/>
<circle cx="23.5" cy="22.5" r="0.5"/>
</svg>
